<?xml version="1.0" encoding="utf-8"?>
<!-- Generator: Adobe Illustrator 19.0.0, SVG Export Plug-In . SVG Version: 6.00 Build 0)  -->
<svg version="1.1" id="Layer_1" xmlns="http://www.w3.org/2000/svg" xmlns:xlink="http://www.w3.org/1999/xlink" x="0px" y="0px"
	 viewBox="0 0 1356.9 246.1" style="enable-background:new 0 0 1356.9 246.1;" xml:space="preserve">
<style type="text/css">
	.st0{fill:#009444;}
</style>
<g id="XMLID_2_">
	<path id="XMLID_3_" class="st0" d="M245,0v43.8H66.2c-12.3,0-22.4,10.1-22.4,22.4v22.8h157.5v43.8H43.4V245H0V66.2
		C0,29.8,29.4,0,65.8,0H245z"/>
	<path id="XMLID_5_" class="st0" d="M279.6,245V0h43.8v245H279.6z"/>
	<path id="XMLID_7_" class="st0" d="M560.3,201.6v43.8H436.1c-12.3,0-23.8-2.8-34.3-8c-15.4-7.7-28-20.3-35.4-35.7
		c-5.3-10.5-8-22.1-8-34.3V0.4h43.8v171.2c2.1,15.4,14.4,27.7,29.8,29.8L560.3,201.6z"/>
	<path id="XMLID_9_" class="st0" d="M639.1,66.2v22.8h157.5v43.8H639.1v46.2c0,12.3,10.2,22.4,22.4,22.4h178.9V245H661.5
		c-36.4,0-65.8-29.8-65.8-66.2V66.2c0-36.4,29.4-66.2,65.8-66.2h178.9v43.8H661.5C649.2,43.8,639.1,53.9,639.1,66.2z"/>
	<path id="XMLID_11_" class="st0" d="M1069.2,43.4c5.3,10.5,8.1,22.1,8.1,34.3v167h-43.8V73.5c-2.1-15.4-14.4-27.7-29.8-29.8H875.3
		V0h124.3c12.3,0,23.8,2.8,34.3,8.1c15.4,7.7,28,20.3,35.4,35.7V43.4z"/>
	<path id="XMLID_13_" class="st0" d="M1351,145.6c3.9,8.8,6,18.2,6,28.4c0,39.9-32.2,72.1-72.1,72.1h-172.6v-43.8h172.6
		c15.8,0,28.4-12.9,28.4-28.7c0-14.7-10.9-27-25.2-28.4h-175.7V1.1h224.4v43.8H1156v56.7h129.2c0.7,0,1.4,0,2.5,0
		c28.7,0.7,53.2,18.6,63.7,43.8L1351,145.6z"/>
</g>
</svg>
