<?xml version="1.0" encoding="utf-8"?>
<!-- Generator: Adobe Illustrator 19.0.0, SVG Export Plug-In . SVG Version: 6.00 Build 0)  -->
<svg version="1.1" id="Layer_2" xmlns="http://www.w3.org/2000/svg" xmlns:xlink="http://www.w3.org/1999/xlink" x="0px" y="0px"
	 viewBox="0 0 505 645" style="enable-background:new 0 0 505 645;" xml:space="preserve">
<style type="text/css">
	.st0{fill:#35AC4A;}
	.st1{fill:#8DC63F;}
	.st2{fill:#38AB49;}
</style>
<path id="XMLID_20_" class="st0" d="M0.7,106.6c-0.2,0.2-0.5,0.5-0.7,0.7v-0.7H0.7z"/>
<path id="XMLID_21_" class="st0" d="M97.9,106.6H0.7c32-30.5,64.1-61.1,96.1-91.6h1.1V106.6z"/>
<path id="XMLID_24_" class="st0" d="M112.9,0v121.6H0V645h505V0H112.9z M381.9,261.1H203c-12.3,0-22.4,10.2-22.4,22.4v22.8h157.5
	V350H180.3v112.3h-43.4V283.8c0-36.4,29.4-66.2,65.8-66.2l179.2-0.3V261.1z"/>
<path id="XMLID_17_" class="st1" d="M0,106.6h0.7c-0.2,0.2-0.5,0.5-0.7,0.7V106.6z"/>
<path id="XMLID_18_" class="st1" d="M97.9,15v91.6H0.7c32-30.5,64.1-61.1,96.1-91.6H97.9z"/>
<path id="XMLID_11_" class="st2" d="M97.9,15v91.6H0.7c32-30.5,64.1-61.1,96.1-91.6H97.9z"/>
</svg>
